<mxfile host="app.diagrams.net" modified="2023-07-24T10:15:11.888Z" agent="Mozilla/5.0 (X11; Ubuntu; Linux x86_64; rv:109.0) Gecko/20100101 Firefox/113.0" etag="0piuNLz8NWV5gS60jzr-" version="21.6.2">
  <diagram name="Page-1" id="OnH2HxPvch0l8OaRGnw7">
    <mxGraphModel dx="777" dy="528" grid="1" gridSize="2" guides="1" tooltips="1" connect="1" arrows="1" fold="1" page="1" pageScale="1" pageWidth="827" pageHeight="1169" math="0" shadow="0">
      <root>
        <mxCell id="0" />
        <mxCell id="1" parent="0" />
        <mxCell id="ZuR12X2DeIc08mKDCGFn-1" value="" style="group" vertex="1" connectable="0" parent="1">
          <mxGeometry x="140" y="239.9951912721358" width="112" height="88.0048087278642" as="geometry" />
        </mxCell>
        <mxCell id="ZuR12X2DeIc08mKDCGFn-6" value="" style="endArrow=none;html=1;curved=1;endFill=0;fillColor=#dae8fc;strokeColor=#6c8ebf;dashed=1;strokeWidth=3;dashPattern=1 4;" edge="1" parent="ZuR12X2DeIc08mKDCGFn-1">
          <mxGeometry width="50" height="50" relative="1" as="geometry">
            <mxPoint x="4" y="154.0048087278642" as="sourcePoint" />
            <mxPoint x="164" y="-65.9951912721358" as="targetPoint" />
            <Array as="points">
              <mxPoint x="4" y="114.0048087278642" />
              <mxPoint x="34" y="44.0048087278642" />
              <mxPoint x="44" y="22.884808727864197" />
              <mxPoint x="104" y="-55.9951912721358" />
            </Array>
          </mxGeometry>
        </mxCell>
        <mxCell id="RdYYO0UL_oksXpyvxEGz-2" value="" style="rounded=1;whiteSpace=wrap;html=1;rotation=-60;" parent="ZuR12X2DeIc08mKDCGFn-1" vertex="1">
          <mxGeometry y="23.1948087278642" width="72.33" height="32.5" as="geometry" />
        </mxCell>
        <mxCell id="RdYYO0UL_oksXpyvxEGz-11" value="a&lt;sub&gt;x&lt;/sub&gt;" style="text;html=1;strokeColor=none;fillColor=none;align=center;verticalAlign=middle;whiteSpace=wrap;rounded=0;" parent="ZuR12X2DeIc08mKDCGFn-1" vertex="1">
          <mxGeometry y="34.4448087278642" width="60" height="30" as="geometry" />
        </mxCell>
        <mxCell id="RdYYO0UL_oksXpyvxEGz-19" value="" style="shape=orEllipse;perimeter=ellipsePerimeter;whiteSpace=wrap;html=1;backgroundOutline=1;" parent="ZuR12X2DeIc08mKDCGFn-1" vertex="1">
          <mxGeometry x="31.160000000000025" y="34.4448087278642" width="10" height="10" as="geometry" />
        </mxCell>
        <mxCell id="ZuR12X2DeIc08mKDCGFn-7" value="&lt;div&gt;Cartesian&lt;/div&gt;&lt;div&gt;Reference&lt;br&gt;&lt;/div&gt;" style="text;whiteSpace=wrap;html=1;" vertex="1" parent="ZuR12X2DeIc08mKDCGFn-1">
          <mxGeometry x="70" y="36.0048087278642" width="50" height="40" as="geometry" />
        </mxCell>
        <mxCell id="ZuR12X2DeIc08mKDCGFn-31" value="x&lt;sub&gt;0&lt;/sub&gt;" style="text;html=1;strokeColor=none;fillColor=none;align=center;verticalAlign=middle;whiteSpace=wrap;rounded=0;" vertex="1" parent="1">
          <mxGeometry x="136" y="322" width="60" height="30" as="geometry" />
        </mxCell>
        <mxCell id="ZuR12X2DeIc08mKDCGFn-32" value="x&lt;sub&gt;n&lt;/sub&gt;" style="text;html=1;strokeColor=none;fillColor=none;align=center;verticalAlign=middle;whiteSpace=wrap;rounded=0;" vertex="1" parent="1">
          <mxGeometry x="210" y="206" width="60" height="30" as="geometry" />
        </mxCell>
      </root>
    </mxGraphModel>
  </diagram>
</mxfile>
